# xmcd
#
# Track frame offsets: 
#        150
#        11287
#        27161
#        41340
#        52392
#        65549
#        79149
#        93237
#        105246
#        119856
#
# Disc length: 1817 seconds
#
# Revision: 0
# Processed by: cddbd v1.5.2PL0 Copyright (c) Steve Scherf et al.
# Submitted via: ExactAudioCopy v1.0b1
#
DISCID=7b07170a
DTITLE=Barbi Benton - Barbi Benton
DYEAR=1975
DGENRE=Country
TTITLE0=Brass Buckles
TTITLE1=Dixie Girl
TTITLE2=Deadeye
TTITLE3=Smile
TTITLE4=Jeremy
TTITLE5=The Reverend Bob
TTITLE6=He Used To Sing To Me
TTITLE7=Movie Magazine Stars In Her Eyes
TTITLE8=He Looks Just Like His Daddy
TTITLE9=I've Got The Music In Me
EXTD=
EXTT0=
EXTT1=
EXTT2=
EXTT3=
EXTT4=
EXTT5=
EXTT6=
EXTT7=
EXTT8=
EXTT9=
PLAYORDER=
